<svg xmlns="http://www.w3.org/2000/svg" viewBox="0 0 1280 720">
  <defs><linearGradient id="g" x1="0" x2="1" y1="0" y2="1"><stop stop-color="#111827"/><stop offset=".45" stop-color="#0A0D13"/><stop offset="1" stop-color="#18254A"/></linearGradient></defs>
  <rect width="1280" height="720" fill="url(#g)"/>
  <circle cx="1010" cy="130" r="180" fill="#4F8CFF" opacity=".2"/><circle cx="260" cy="580" r="220" fill="#00E5FF" opacity=".12"/>
  <rect x="120" y="92" width="1040" height="536" rx="28" fill="#0B0F16" stroke="rgba(255,255,255,.18)"/>
  <text x="166" y="158" fill="#fff" font-family="Inter, Arial" font-size="34" font-weight="800">Excel to Print Demo</text>
  <text x="166" y="198" fill="#9CA3AF" font-family="Inter, Arial" font-size="18">Import data, map layers, preview rows, and export print-ready PDF files.</text>
  <rect x="166" y="254" width="250" height="260" rx="18" fill="#111827"/><rect x="452" y="254" width="250" height="260" rx="18" fill="#111827"/><rect x="738" y="254" width="250" height="260" rx="18" fill="#111827"/>
  <g fill="#283348"><rect x="194" y="304" width="194" height="18" rx="9"/><rect x="194" y="352" width="194" height="18" rx="9"/><rect x="194" y="400" width="148" height="18" rx="9"/><rect x="480" y="316" width="194" height="16" rx="8"/><rect x="480" y="368" width="160" height="16" rx="8"/><rect x="766" y="438" width="194" height="16" rx="8"/></g>
  <rect x="508" y="408" width="110" height="42" rx="21" fill="#4F8CFF"/><rect x="802" y="306" width="120" height="92" rx="14" fill="#F7FBFF"/>
</svg>
