<svg xmlns="http://www.w3.org/2000/svg" viewBox="0 0 900 620">
  <rect width="900" height="620" rx="28" fill="#090D14"/><rect x="20" y="20" width="860" height="580" rx="20" fill="#101621" stroke="rgba(255,255,255,.15)"/>
  <circle cx="54" cy="50" r="7" fill="#FF5C7A"/><circle cx="78" cy="50" r="7" fill="#FFD166"/><circle cx="102" cy="50" r="7" fill="#4DFFB5"/>
  <rect x="44" y="86" width="190" height="472" rx="16" fill="#151C29"/><rect x="258" y="86" width="274" height="472" rx="16" fill="#0D121B"/><rect x="556" y="86" width="300" height="472" rx="16" fill="#0D121B"/>
  <g fill="#273348"><rect x="68" y="126" width="138" height="30" rx="8"/><rect x="68" y="172" width="138" height="30" rx="8"/><rect x="68" y="218" width="138" height="30" rx="8"/><rect x="286" y="126" width="218" height="34" rx="8"/><rect x="286" y="180" width="218" height="34" rx="8"/><rect x="286" y="234" width="218" height="34" rx="8"/></g>
  <rect x="615" y="130" width="180" height="260" rx="18" fill="#F6FAFF"/><rect x="640" y="158" width="130" height="38" rx="8" fill="#4F8CFF"/><circle cx="705" cy="250" r="38" fill="#D8E8FF"/><rect x="654" y="324" width="102" height="12" rx="6" fill="#161B24"/>
</svg>
